<?xml version="1.0" standalone="no"?>
<!DOCTYPE svg PUBLIC "-//W3C//DTD SVG 20010904//EN"
 "http://www.w3.org/TR/2001/REC-SVG-20010904/DTD/svg10.dtd">
<svg version="1.0" xmlns="http://www.w3.org/2000/svg"
 width="200.000000pt" height="200.000000pt" viewBox="0 0 200.000000 200.000000"
 preserveAspectRatio="xMidYMid meet">
<metadata>
Created by potrace 1.11, written by Peter Selinger 2001-2013
</metadata>
<g transform="translate(0.000000,200.000000) scale(0.100000,-0.100000)"
fill="#000000" stroke="none">
<path d="M145 1981 c-48 -22 -97 -68 -122 -113 -17 -31 -18 -84 -18 -868 0
-791 1 -837 18 -869 23 -41 67 -85 110 -108 30 -17 88 -18 868 -18 l836 0 49
30 c30 19 60 49 79 79 l30 49 3 801 c2 441 0 820 -3 842 -8 58 -58 129 -114
162 l-46 27 -825 2 c-778 2 -827 1 -865 -16z"/>
</g>
</svg>
